<?xml version="1.0" standalone="no"?>
<!DOCTYPE svg PUBLIC "-//W3C//DTD SVG 20010904//EN"
 "http://www.w3.org/TR/2001/REC-SVG-20010904/DTD/svg10.dtd">
<svg version="1.0" xmlns="http://www.w3.org/2000/svg"
 width="227.000000pt" height="153.000000pt" viewBox="0 0 227.000000 153.000000"
 preserveAspectRatio="xMidYMid meet">

<g transform="translate(0.000000,153.000000) scale(0.100000,-0.100000)"
fill="#000000" stroke="none">
<path d="M0 765 l0 -765 1135 0 1135 0 0 765 0 765 -1135 0 -1135 0 0 -765z
m966 580 c20 -15 17 -17 -31 -19 -25 -1 -30 -5 -30 -26 0 -21 5 -25 29 -25 38
-1 46 -22 12 -31 -60 -15 -99 53 -56 96 24 24 49 25 76 5z m112 -1 c42 -29 18
-104 -35 -104 -28 0 -63 33 -63 60 0 25 34 60 58 60 10 0 28 -7 40 -16z m84
-16 l23 -33 5 30 c8 47 25 30 28 -30 3 -62 -13 -74 -42 -30 -9 14 -21 23 -27
20 -5 -4 -7 -10 -5 -14 3 -4 1 -13 -4 -20 -15 -25 -30 0 -30 48 0 71 15 80 52
29z m174 7 c27 -27 26 -59 -4 -82 -14 -12 -13 -13 6 -13 12 0 22 -4 22 -10 0
-32 -113 14 -125 51 -9 28 4 59 28 69 35 14 46 12 73 -15z m62 -23 c3 -34 7
-42 23 -42 16 0 19 7 19 45 0 33 4 45 15 45 11 0 15 -12 15 -50 0 -44 -3 -52
-25 -62 -19 -8 -31 -8 -50 0 -22 10 -25 18 -25 63 0 63 23 64 28 1z m122 -12
c0 -47 -3 -60 -15 -60 -12 0 -15 13 -15 60 0 47 3 60 15 60 12 0 15 -13 15
-60z m91 50 c13 -8 19 -7 19 0 0 16 92 8 98 -7 2 -8 -5 -13 -17 -13 -18 0 -21
-6 -21 -45 0 -33 -4 -45 -15 -45 -11 0 -15 12 -15 44 l0 44 -45 0 c-48 -1 -49
-4 -13 -22 52 -26 17 -74 -43 -61 -37 8 -33 31 4 27 34 -4 35 6 2 18 -27 10
-33 38 -13 58 15 15 33 15 59 2z m214 -5 c0 -5 -12 -11 -27 -13 -35 -4 -37
-22 -3 -22 14 0 25 -4 25 -10 0 -5 -12 -10 -26 -10 -16 0 -24 -5 -22 -12 3 -7
15 -13 28 -13 13 0 25 -6 27 -12 3 -9 -9 -13 -41 -13 l-46 0 0 61 0 60 43 -3
c23 -2 42 -7 42 -13z m-868 -172 c3 -6 -8 -13 -24 -15 l-28 -4 27 -11 c32 -14
40 -26 32 -47 -8 -22 -47 -30 -73 -16 -28 14 -17 32 15 24 13 -3 24 -2 24 4 0
5 -11 13 -25 16 -18 5 -25 13 -25 30 0 12 3 26 7 30 11 11 66 3 70 -11z m55
-25 c2 -31 8 -44 21 -46 14 -3 17 4 17 42 0 34 4 46 15 46 11 0 15 -12 15 -50
0 -44 -3 -52 -25 -62 -19 -8 -31 -8 -50 0 -22 10 -25 18 -25 62 0 37 4 50 14
50 10 0 16 -14 18 -42z m177 -9 c25 -61 26 -69 6 -69 -8 0 -15 5 -15 10 0 6
-13 10 -30 10 -16 0 -30 -4 -30 -10 0 -5 -7 -10 -16 -10 -11 0 -14 6 -8 23 14
45 45 97 58 97 7 0 23 -23 35 -51z m101 16 c13 -40 25 -38 35 5 4 17 13 30 22
30 11 0 14 -7 9 -23 -12 -49 -37 -97 -50 -97 -12 0 -56 88 -56 111 0 24 30 5
40 -26z m176 -28 c17 -44 19 -57 9 -57 -8 0 -17 5 -20 10 -9 14 -48 13 -63 -2
-26 -26 -29 8 -5 60 32 68 50 65 79 -11z m122 43 c2 -11 -6 -15 -30 -15 -29 0
-33 -3 -33 -25 0 -18 6 -26 23 -28 15 -2 22 2 22 12 0 9 7 16 16 16 26 0 12
-43 -18 -54 -58 -20 -103 50 -61 96 20 23 76 21 81 -2z m112 -26 c11 -26 20
-53 20 -60 0 -19 -18 -18 -37 1 -14 14 -18 14 -39 0 -29 -19 -34 -19 -34 -1 0
26 41 106 55 106 8 0 23 -21 35 -46z m-610 -354 c69 -35 89 -113 50 -190 -11
-21 -55 -76 -97 -122 l-78 -83 108 -3 107 -3 0 -54 0 -55 -195 0 -195 0 0 48
c0 46 3 50 91 142 144 152 166 198 110 226 -29 15 -92 -1 -139 -35 l-30 -21
-27 47 -26 47 23 18 c73 57 224 76 298 38z m340 -245 l0 -265 -65 0 -65 0 0
210 0 210 -50 0 -50 0 0 55 0 55 115 0 115 0 0 -265z"/>
<path d="M1021 1317 c-17 -21 -3 -49 23 -45 15 2 21 10 21 28 0 28 -26 38 -44
17z"/>
<path d="M1277 1324 c-4 -4 -7 -18 -7 -31 0 -20 5 -24 23 -21 16 2 22 10 22
28 0 24 -23 39 -38 24z"/>
<path d="M1140 1130 c0 -5 5 -10 10 -10 6 0 10 5 10 10 0 6 -4 10 -10 10 -5 0
-10 -4 -10 -10z"/>
<path d="M1416 1135 c-3 -9 0 -15 9 -15 9 0 12 6 9 15 -4 8 -7 15 -9 15 -2 0
-5 -7 -9 -15z"/>
<path d="M1656 1135 c-3 -9 0 -15 9 -15 9 0 12 6 9 15 -4 8 -7 15 -9 15 -2 0
-5 -7 -9 -15z"/>
</g>
</svg>
